<mxfile host="app.diagrams.net" modified="2023-09-12T02:38:01.504Z" agent="Mozilla/5.0 (Macintosh; Intel Mac OS X 10_15_7) AppleWebKit/537.36 (KHTML, like Gecko) Chrome/116.0.0.0 Safari/537.36" etag="keLst-XcTShdGenw_puT" version="21.7.4" type="github">
  <diagram id="C5RBs43oDa-KdzZeNtuy" name="Page-1">
    <mxGraphModel dx="954" dy="610" grid="1" gridSize="10" guides="1" tooltips="1" connect="1" arrows="1" fold="1" page="1" pageScale="1" pageWidth="827" pageHeight="1169" math="0" shadow="0">
      <root>
        <mxCell id="WIyWlLk6GJQsqaUBKTNV-0" />
        <mxCell id="WIyWlLk6GJQsqaUBKTNV-1" parent="WIyWlLk6GJQsqaUBKTNV-0" />
        <mxCell id="Vh7FBjHL34Z6aKx40-Cg-13" style="edgeStyle=orthogonalEdgeStyle;rounded=0;orthogonalLoop=1;jettySize=auto;html=1;exitX=0.75;exitY=1;exitDx=0;exitDy=0;entryX=0;entryY=0;entryDx=160;entryDy=60;entryPerimeter=0;" edge="1" parent="WIyWlLk6GJQsqaUBKTNV-1" source="Vh7FBjHL34Z6aKx40-Cg-1" target="Vh7FBjHL34Z6aKx40-Cg-5">
          <mxGeometry relative="1" as="geometry">
            <Array as="points">
              <mxPoint x="466" y="585" />
              <mxPoint x="570" y="585" />
              <mxPoint x="570" y="700" />
            </Array>
          </mxGeometry>
        </mxCell>
        <mxCell id="Vh7FBjHL34Z6aKx40-Cg-1" value="0" style="swimlane;whiteSpace=wrap;html=1;" vertex="1" parent="WIyWlLk6GJQsqaUBKTNV-1">
          <mxGeometry x="308" y="330" width="211" height="200" as="geometry" />
        </mxCell>
        <mxCell id="Vh7FBjHL34Z6aKx40-Cg-2" value="Hotel Booking System" style="text;html=1;align=center;verticalAlign=middle;resizable=0;points=[];autosize=1;strokeColor=none;fillColor=none;fontSize=18;" vertex="1" parent="Vh7FBjHL34Z6aKx40-Cg-1">
          <mxGeometry x="5" y="80" width="200" height="40" as="geometry" />
        </mxCell>
        <mxCell id="Vh7FBjHL34Z6aKx40-Cg-3" value="Customer" style="shape=cube;whiteSpace=wrap;html=1;boundedLbl=1;backgroundOutline=1;darkOpacity=0.05;darkOpacity2=0.1;fontSize=16;" vertex="1" parent="WIyWlLk6GJQsqaUBKTNV-1">
          <mxGeometry x="80" y="160" width="160" height="100" as="geometry" />
        </mxCell>
        <mxCell id="Vh7FBjHL34Z6aKx40-Cg-4" value="Staff" style="shape=cube;whiteSpace=wrap;html=1;boundedLbl=1;backgroundOutline=1;darkOpacity=0.05;darkOpacity2=0.1;fontSize=16;" vertex="1" parent="WIyWlLk6GJQsqaUBKTNV-1">
          <mxGeometry x="590" y="160" width="160" height="100" as="geometry" />
        </mxCell>
        <mxCell id="Vh7FBjHL34Z6aKx40-Cg-5" value="Manager" style="shape=cube;whiteSpace=wrap;html=1;boundedLbl=1;backgroundOutline=1;darkOpacity=0.05;darkOpacity2=0.1;fontSize=16;" vertex="1" parent="WIyWlLk6GJQsqaUBKTNV-1">
          <mxGeometry x="334" y="640" width="160" height="100" as="geometry" />
        </mxCell>
        <mxCell id="Vh7FBjHL34Z6aKx40-Cg-6" value="" style="endArrow=classic;html=1;rounded=0;edgeStyle=orthogonalEdgeStyle;entryX=0;entryY=0.5;entryDx=0;entryDy=0;" edge="1" parent="WIyWlLk6GJQsqaUBKTNV-1" source="Vh7FBjHL34Z6aKx40-Cg-3" target="Vh7FBjHL34Z6aKx40-Cg-1">
          <mxGeometry width="50" height="50" relative="1" as="geometry">
            <mxPoint x="160" y="310" as="sourcePoint" />
            <mxPoint x="160" y="420" as="targetPoint" />
            <Array as="points">
              <mxPoint x="160" y="430" />
            </Array>
          </mxGeometry>
        </mxCell>
        <mxCell id="Vh7FBjHL34Z6aKx40-Cg-7" value="" style="endArrow=classic;html=1;rounded=0;exitX=0.341;exitY=0;exitDx=0;exitDy=0;exitPerimeter=0;edgeStyle=orthogonalEdgeStyle;entryX=1;entryY=0.51;entryDx=0;entryDy=0;entryPerimeter=0;" edge="1" parent="WIyWlLk6GJQsqaUBKTNV-1" source="Vh7FBjHL34Z6aKx40-Cg-1" target="Vh7FBjHL34Z6aKx40-Cg-3">
          <mxGeometry width="50" height="50" relative="1" as="geometry">
            <mxPoint x="350" y="210" as="sourcePoint" />
            <mxPoint x="380" y="170" as="targetPoint" />
            <Array as="points">
              <mxPoint x="381" y="330" />
              <mxPoint x="381" y="211" />
            </Array>
          </mxGeometry>
        </mxCell>
        <mxCell id="Vh7FBjHL34Z6aKx40-Cg-8" value="" style="endArrow=classic;html=1;rounded=0;exitX=0.75;exitY=0;exitDx=0;exitDy=0;edgeStyle=orthogonalEdgeStyle;entryX=0;entryY=0;entryDx=0;entryDy=40;entryPerimeter=0;" edge="1" parent="WIyWlLk6GJQsqaUBKTNV-1" source="Vh7FBjHL34Z6aKx40-Cg-1" target="Vh7FBjHL34Z6aKx40-Cg-4">
          <mxGeometry width="50" height="50" relative="1" as="geometry">
            <mxPoint x="450" y="270" as="sourcePoint" />
            <mxPoint x="466" y="210" as="targetPoint" />
          </mxGeometry>
        </mxCell>
        <mxCell id="Vh7FBjHL34Z6aKx40-Cg-10" value="" style="endArrow=classic;html=1;rounded=0;exitX=1;exitY=0.5;exitDx=0;exitDy=0;edgeStyle=orthogonalEdgeStyle;entryX=0;entryY=0;entryDx=90;entryDy=100;entryPerimeter=0;" edge="1" parent="WIyWlLk6GJQsqaUBKTNV-1" source="Vh7FBjHL34Z6aKx40-Cg-1" target="Vh7FBjHL34Z6aKx40-Cg-4">
          <mxGeometry width="50" height="50" relative="1" as="geometry">
            <mxPoint x="590" y="430" as="sourcePoint" />
            <mxPoint x="680" y="430" as="targetPoint" />
          </mxGeometry>
        </mxCell>
        <mxCell id="Vh7FBjHL34Z6aKx40-Cg-11" value="" style="endArrow=classic;html=1;rounded=0;exitX=0.25;exitY=1;exitDx=0;exitDy=0;edgeStyle=orthogonalEdgeStyle;entryX=0.006;entryY=0.62;entryDx=0;entryDy=0;entryPerimeter=0;" edge="1" parent="WIyWlLk6GJQsqaUBKTNV-1" source="Vh7FBjHL34Z6aKx40-Cg-1" target="Vh7FBjHL34Z6aKx40-Cg-5">
          <mxGeometry width="50" height="50" relative="1" as="geometry">
            <mxPoint x="300" y="490" as="sourcePoint" />
            <mxPoint x="250" y="720" as="targetPoint" />
            <Array as="points">
              <mxPoint x="361" y="585" />
              <mxPoint x="280" y="585" />
              <mxPoint x="280" y="702" />
            </Array>
          </mxGeometry>
        </mxCell>
        <mxCell id="Vh7FBjHL34Z6aKx40-Cg-14" value="Detail Book" style="text;html=1;strokeColor=none;fillColor=none;align=center;verticalAlign=middle;whiteSpace=wrap;rounded=0;" vertex="1" parent="WIyWlLk6GJQsqaUBKTNV-1">
          <mxGeometry x="250" y="210" width="130" height="30" as="geometry" />
        </mxCell>
        <mxCell id="Vh7FBjHL34Z6aKx40-Cg-15" value="Detail Member" style="text;html=1;strokeColor=none;fillColor=none;align=center;verticalAlign=middle;whiteSpace=wrap;rounded=0;" vertex="1" parent="WIyWlLk6GJQsqaUBKTNV-1">
          <mxGeometry x="150" y="400" width="130" height="30" as="geometry" />
        </mxCell>
      </root>
    </mxGraphModel>
  </diagram>
</mxfile>
